<svg xmlns="http://www.w3.org/2000/svg" viewBox="0 0 1024 1024">
  <path d="M1024 670.72c0-5.12-3.584-10.24-9.728-13.312l-0.512-0.256c-42.496-20.48-95.744-44.544-155.648-72.192 27.136-65.024 44.544-137.216 49.152-206.848H718.848v-69.632h218.624V267.264H718.848V163.328c0-12.288-10.752-22.528-24.064-22.528h-111.104v126.464H355.328v41.216h228.352v69.632H399.872v41.216h282.624c-6.144 52.736-19.968 106.496-40.96 155.648-75.264-29.696-141.312-53.76-171.008-62.464-111.616-32.768-214.016-12.8-246.272 53.76-32.256 66.56 7.168 155.136 114.176 197.632 80.896 32.256 176.64 16.384 240.128-32.768 23.04-17.92 43.52-40.448 61.44-67.072 63.488 28.672 165.888 77.312 175.616 82.432C888.832 934.4 711.168 1024 512 1024 229.376 1024 0 794.624 0 512S229.376 0 512 0s512 229.376 512 512v158.72z" fill="#1677FF"/>
  <path d="M596.48 609.792c-17.92 26.624-38.4 49.152-61.44 67.072-63.488 49.152-159.232 65.024-240.128 32.768-107.008-42.496-146.432-131.072-114.176-197.632 32.256-66.56 134.656-86.528 246.272-53.76 29.696 8.704 95.744 32.768 171.008 62.464a509.44 509.44 0 0 1-1.536 89.088z" fill="#1677FF" opacity="0.15"/>
</svg>
