<svg viewBox="0 0 1024 1024" xmlns="http://www.w3.org/2000/svg">
  <!-- 大气泡（实心） -->
  <path d="M370.7 92.5C166.3 92.5 0 234.8 0 409.7c0 91.4 45.7 177.7 125.5 238-1.2 8.5-6.4 25-9.7 35.5-11.2 35.4-21.8 68.9 4.5 81.7 4.8 2.3 9.8 3.4 15.4 3.4 18.3 0 41.7-11.8 76-30 16.8-8.9 44.7-23.7 53.7-24.3 34.1 8.6 69.5 13 105.4 13 204.4 0 370.7-142.3 370.7-317.3S575.1 92.5 370.7 92.5z" fill="#07C160"/>
  <!-- 大气泡眼睛 -->
  <circle cx="250" cy="350" r="30" fill="white"/>
  <circle cx="494" cy="350" r="30" fill="white"/>
  <!-- 小气泡（实心） -->
  <path d="M706.8 352.8c-174.9 0-317.2 122-317.2 271.8 0 149.9 142.3 271.8 317.2 271.8 30.4 0 60.5-3.7 89.4-10.9 7.9 1.1 30.2 13 43.7 20.2 29.4 15.6 49.6 25.8 65.9 25.8 5.2 0 9.9-1 14.4-3.2 24.9-12.1 15-43.1 5.5-73.1-2.5-8-6.5-20.4-7.8-27.7C985.5 776 1024 702.4 1024 624.6c0-149.9-142.3-271.8-317.2-271.8z" fill="#2DC84D"/>
  <!-- 小气泡眼睛 -->
  <circle cx="615" cy="590" r="24" fill="white"/>
  <circle cx="807" cy="590" r="24" fill="white"/>
</svg>
